<?xml version="1.0" encoding="utf-8"?>
<!-- Generator: Adobe Illustrator 19.0.0, SVG Export Plug-In . SVG Version: 6.00 Build 0)  -->
<svg version="1.1" xmlns="http://www.w3.org/2000/svg" xmlns:xlink="http://www.w3.org/1999/xlink" x="0px" y="0px"
	 viewBox="6 -6 512 512" style="enable-background:new 6 -6 512 512;" xml:space="preserve">
<style type="text/css">
	.st0{fill:#222222;}
	.st1{display:none;}
	.st2{display:inline;}
	.st3{fill:#DDDDDD;}
</style>
<g id="Dark">
	<g>
		<path class="st0" d="M100.617,88.403v417.579h417.37V88.403H100.617z M470.678,409.235h-322.75v-273.49h322.75V409.235z"/>
		<path class="st0" d="M217.033,285.865c16.874,0,30.546-13.688,30.546-30.563s-13.672-30.563-30.546-30.563
			s-30.545,13.687-30.545,30.563C186.487,272.178,200.159,285.865,217.033,285.865z"/>
		<polygon class="st0" points="455.382,377.924 354.495,251.178 297.216,323.113 269.593,288.394 198.347,377.924 		"/>
		<polygon class="st0" points="423.367,41.311 423.367,-6 6.013,-6 6.013,411.578 53.308,411.578 53.308,314.832 53.308,41.311 
			376.072,41.311 		"/>
	</g>
</g>
<g id="Light" class="st1">
	<g class="st2">
		<path class="st3" d="M100.617,88.403v417.579h417.37V88.403H100.617z M470.678,409.235h-322.75v-273.49h322.75V409.235z"/>
		<path class="st3" d="M217.033,285.865c16.874,0,30.546-13.688,30.546-30.563s-13.672-30.563-30.546-30.563
			s-30.545,13.687-30.545,30.563C186.487,272.178,200.159,285.865,217.033,285.865z"/>
		<polygon class="st3" points="455.382,377.924 354.495,251.178 297.216,323.113 269.593,288.394 198.347,377.924 		"/>
		<polygon class="st3" points="423.367,41.311 423.367,-6 6.013,-6 6.013,411.578 53.308,411.578 53.308,314.832 53.308,41.311 
			376.072,41.311 		"/>
	</g>
</g>
</svg>
